# This file uses centimeters as units for non-parametric coordinates.

mtllib palanca_rueda.mtl
g default
v 11.703764 30.573788 -1.521964
v 10.368813 33.338730 -1.521964
v 7.966398 35.250645 -1.521964
v 4.972350 35.930851 -1.521964
v 1.979676 35.244629 -1.521964
v -0.418890 33.327888 -1.521964
v -1.748280 30.560266 -1.521964
v -1.745193 27.489925 -1.521964
v -0.410241 24.724981 -1.521964
v 1.992173 22.813068 -1.521964
v 4.986222 22.132862 -1.521964
v 7.978897 22.819088 -1.521964
v 10.377461 24.735828 -1.521964
v 11.706852 27.503448 -1.521964
v 11.703764 30.573790 1.521048
v 10.368813 33.338734 1.521048
v 7.966398 35.250645 1.521048
v 4.972350 35.930851 1.521048
v 1.979676 35.244629 1.521048
v -0.418890 33.327888 1.521048
v -1.748280 30.560266 1.521048
v -1.745193 27.489925 1.521048
v -0.410241 24.724983 1.521048
v 1.992173 22.813068 1.521048
v 4.986222 22.132862 1.521048
v 7.978897 22.819088 1.521048
v 10.377461 24.735828 1.521048
v 11.706852 27.503448 1.521048
v 4.979286 29.031857 -1.521964
v 4.979286 29.031857 1.521048
vt 0.909129 0.682004
vt 0.857227 0.616922
vt 0.782227 0.580803
vt 0.698983 0.580803
vt 0.623983 0.616922
vt 0.572081 0.682004
vt 0.553558 0.763161
vt 0.572081 0.844317
vt 0.623983 0.909400
vt 0.698983 0.945518
vt 0.782227 0.945518
vt 0.857227 0.909400
vt 0.909129 0.844317
vt 0.927652 0.763161
vt 0.514222 0.330775
vt 0.547248 0.330775
vt 0.580274 0.330775
vt 0.613299 0.330775
vt 0.646325 0.330775
vt 0.679350 0.330775
vt 0.712376 0.330775
vt 0.745402 0.330775
vt 0.778427 0.330775
vt 0.811453 0.330775
vt 0.844478 0.330775
vt 0.877504 0.330775
vt 0.910530 0.330775
vt 0.943555 0.330775
vt 0.976581 0.330775
vt 0.514222 0.526258
vt 0.547248 0.526258
vt 0.580274 0.526258
vt 0.613299 0.526258
vt 0.646325 0.526258
vt 0.679350 0.526258
vt 0.712376 0.526258
vt 0.745402 0.526258
vt 0.778427 0.526258
vt 0.811453 0.526258
vt 0.844478 0.526258
vt 0.877504 0.526258
vt 0.910530 0.526258
vt 0.943555 0.526258
vt 0.976581 0.526258
vt 0.909129 0.682004
vt 0.857227 0.616922
vt 0.782227 0.580803
vt 0.698983 0.580803
vt 0.623983 0.616922
vt 0.572081 0.682004
vt 0.553558 0.763161
vt 0.572081 0.844317
vt 0.623983 0.909400
vt 0.698983 0.945518
vt 0.782227 0.945518
vt 0.857227 0.909400
vt 0.909129 0.844317
vt 0.927652 0.763161
vt 0.740605 0.755679
vt 0.740605 0.755679
vn 0.974704 0.223501 -0.000000
vn 0.781204 0.624275 -0.000000
vn 0.781204 0.624276 -0.000000
vn 0.974704 0.223501 -0.000000
vn 0.432978 0.901405 -0.000000
vn 0.432978 0.901405 -0.000000
vn -0.001005 1.000000 0.000000
vn -0.001005 1.000000 0.000000
vn -0.434789 0.900532 0.000000
vn -0.434789 0.900532 0.000000
vn -0.782458 0.622703 0.000000
vn -0.782458 0.622703 0.000000
vn -0.975151 0.221541 0.000000
vn -0.975151 0.221541 0.000000
vn -0.974704 -0.223501 0.000000
vn -0.974704 -0.223501 0.000000
vn -0.781204 -0.624275 0.000000
vn -0.781205 -0.624275 0.000000
vn -0.432978 -0.901405 0.000000
vn -0.432978 -0.901405 0.000000
vn 0.001006 -1.000000 0.000000
vn 0.001006 -1.000000 0.000000
vn 0.434790 -0.900532 0.000000
vn 0.434790 -0.900532 0.000000
vn 0.782458 -0.622704 0.000000
vn 0.782458 -0.622704 0.000000
vn 0.975151 -0.221541 -0.000000
vn 0.975151 -0.221541 -0.000000
vn 0.000000 -0.000000 -1.000000
vn 0.000000 -0.000000 -1.000000
vn 0.000000 -0.000000 -1.000000
vn 0.000000 -0.000000 -1.000000
vn 0.000000 -0.000000 -1.000000
vn 0.000000 -0.000000 -1.000000
vn 0.000000 -0.000000 -1.000000
vn 0.000000 -0.000000 -1.000000
vn -0.000000 0.000000 -1.000000
vn 0.000000 0.000000 -1.000000
vn 0.000000 0.000000 -1.000000
vn 0.000000 0.000000 -1.000000
vn -0.000000 -0.000000 -1.000000
vn -0.000000 -0.000000 -1.000000
vn 0.000000 -0.000000 -1.000000
vn 0.000000 0.000000 1.000000
vn 0.000000 0.000000 1.000000
vn 0.000000 0.000000 1.000000
vn -0.000000 0.000000 1.000000
vn -0.000000 0.000000 1.000000
vn -0.000000 0.000000 1.000000
vn 0.000000 0.000000 1.000000
vn 0.000000 -0.000000 1.000000
vn 0.000000 -0.000000 1.000000
vn 0.000000 -0.000000 1.000000
vn 0.000000 -0.000000 1.000000
vn -0.000000 -0.000000 1.000000
vn -0.000000 0.000000 1.000000
vn -0.000000 0.000000 1.000000
vn 0.000000 0.000000 1.000000
s 1
g palanca_rueda1 palancas_prueba
usemtl phong6SG
f 1/15/1 2/16/2 16/31/3 15/30/4
f 2/16/2 3/17/5 17/32/6 16/31/3
f 3/17/5 4/18/7 18/33/8 17/32/6
f 4/18/7 5/19/9 19/34/10 18/33/8
f 5/19/9 6/20/11 20/35/12 19/34/10
f 6/20/11 7/21/13 21/36/14 20/35/12
f 7/21/13 8/22/15 22/37/16 21/36/14
f 8/22/15 9/23/17 23/38/18 22/37/16
f 9/23/17 10/24/19 24/39/20 23/38/18
f 10/24/19 11/25/21 25/40/22 24/39/20
f 11/25/21 12/26/23 26/41/24 25/40/22
f 12/26/23 13/27/25 27/42/26 26/41/24
f 13/27/25 14/28/27 28/43/28 27/42/26
f 14/28/27 1/29/1 15/44/4 28/43/28
s 2
f 3/3/29 2/2/30 29/59/31 4/4/32
f 5/5/33 4/4/32 29/59/31 6/6/34
f 7/7/35 6/6/34 29/59/31 8/8/36
f 9/9/37 8/8/36 29/59/31 10/10/38
f 11/11/39 10/10/38 29/59/31 12/12/40
f 13/13/41 12/12/40 29/59/31 14/14/42
f 1/1/43 14/14/42 29/59/31 2/2/30
s 3
f 30/60/44 16/56/45 17/55/46 18/54/47
f 30/60/44 18/54/47 19/53/48 20/52/49
f 30/60/44 20/52/49 21/51/50 22/50/51
f 30/60/44 22/50/51 23/49/52 24/48/53
f 30/60/44 24/48/53 25/47/54 26/46/55
f 30/60/44 26/46/55 27/45/56 28/58/57
f 30/60/44 28/58/57 15/57/58 16/56/45
