# This file uses centimeters as units for non-parametric coordinates.

mtllib palanca_roca.mtl
g default
v 3.550404 -4.535925 -7.238776
v 4.194505 -1.546069 -8.475208
v 7.213195 -4.535931 3.602088
v 8.475206 -1.546076 4.194504
v -7.213194 -4.535925 -3.602092
v -7.485204 -1.546069 -4.069422
v -3.550403 -4.535931 7.238775
v -4.638515 -1.546077 9.086382
v 2.509365 -1.546107 9.352362
v 2.522103 -4.535932 7.464738
v -1.963372 -1.546096 -8.616103
v -2.522104 -4.535923 -7.464741
v 8.299489 -1.546042 -2.804140
v 7.062843 -4.535928 -2.386316
v -8.299459 -1.546042 2.804128
v -7.062816 -4.535928 2.386305
v 3.116585 41.513786 -6.325051
v 3.409960 39.814514 -6.889993
v 6.314472 41.513786 3.153571
v 6.890038 39.813362 3.409983
v -5.365439 41.513790 -2.985512
v -5.899920 39.816383 -3.284840
v -3.518017 41.513786 6.942388
v -3.854031 39.811283 7.501294
v 1.956995 39.812050 7.717498
v 1.753014 41.513783 7.138529
v -1.410954 39.815620 -6.981096
v -1.211383 41.513790 -6.405964
v 6.747167 39.813919 -2.279657
v 6.182847 41.513786 -2.088990
v -6.747171 39.813148 2.279660
v -6.158411 41.513786 2.164711
v 0.487900 41.513786 6.119649
v -0.231398 39.811760 7.636078
v -0.027832 41.513783 7.072261
v 0.600077 17.841488 8.524571
v 0.890829 41.513786 7.106446
v 1.064240 39.811928 7.684282
v -5.702509 0.190304 -5.449562
v -3.505479 41.513790 -4.517004
v -3.433996 41.513790 -4.101814
v -3.690260 39.816006 -5.104294
v -3.848645 41.513786 -4.234441
v -4.473067 39.816139 -4.459723
v 6.238720 -1.546055 -5.651108
v 5.874840 -3.151994 -5.011734
v 6.049546 20.829632 -4.468513
v 6.739856 -1.546052 -4.958785
v -7.780540 -1.546059 -1.576338
v -7.026747 -4.535926 -0.858026
v -7.147084 -4.535926 -0.969426
v -6.899002 24.247099 -0.937139
v -7.883462 -1.546055 -0.707523
v -7.143751 -4.535926 -0.836680
v -5.995086 -4.535926 -0.732201
v -1.225578 -4.535928 0.693898
v 0.765501 41.513786 0.339233
vt 0.710903 0.096699
vt 0.399202 0.091076
vt 0.723489 0.112826
vt 0.478551 0.676088
vt 0.417320 0.110751
vt 0.414595 0.154525
vt 0.008002 0.568351
vt 0.686382 0.102684
vt 0.399202 0.173339
vt 0.797645 0.521987
vt 0.723295 0.263448
vt 0.608007 0.326367
vt 0.780348 0.517782
vt 0.424356 0.519300
vt 0.485030 0.689202
vt 0.092053 0.069197
vt 0.308592 0.389897
vt 0.866419 0.978338
vt 0.128875 0.400840
vt 0.797645 0.349434
vt 0.710386 0.255952
vt 0.266582 0.011407
vt 0.797447 0.168044
vt 0.652601 0.000000
vt 0.477427 0.339867
vt 0.376068 0.244197
vt 0.408748 0.248467
vt 0.720307 0.640868
vt 0.767840 0.200278
vt 0.705481 0.067759
vt 0.333514 0.705686
vt 0.298482 0.568553
vt 0.763703 0.524353
vt 0.739702 0.357210
vt 0.301824 0.440151
vt 0.333514 0.410407
vt 1.000000 0.692411
vt 0.166562 0.514204
vt 0.301824 0.698109
vt 0.428025 0.612587
vt 0.409019 0.590011
vt 0.386776 0.178942
vt 0.050326 0.130736
vt 0.323806 0.704274
vt 0.422550 0.244301
vt 0.408748 0.980443
vt 0.487979 0.675247
vt 0.746971 0.179670
vt 0.430113 0.665680
vt 0.127856 0.016395
vt 0.845331 0.979030
vt 0.703703 0.692617
vt 0.720307 0.383944
vt 0.012118 0.727714
vt 0.549683 0.980443
vt 0.159811 0.363525
vt 0.009562 0.508343
vt 0.376068 0.102851
vt 0.427585 0.163393
vt 0.298537 0.358537
vt 0.311370 0.690334
vt 0.971706 0.982847
vt 0.465050 0.689202
vt 0.093771 0.066663
vt 0.430482 0.116860
vt 0.543205 0.689205
vt 0.286994 0.000000
vt 0.767840 0.000000
vt 0.656359 0.682006
vt 0.427297 0.594084
vt 0.409922 0.652638
vt 0.012108 0.410407
vt 0.000000 0.500871
vt 0.694157 0.971194
vt 0.697493 0.079517
vt 0.094507 0.070478
vt 0.428632 0.689200
vt 0.765034 0.200304
vt 0.724394 0.091993
vt 0.010063 0.489061
vt 0.415126 1.000000
vt 0.534858 1.000000
vt 0.612185 0.339867
vt 0.737425 0.108691
vt 0.763703 0.349434
vt 0.608618 0.594652
vt 0.050325 0.272081
vt 0.773250 0.503650
vt 0.399202 0.256267
vt 0.016425 0.122940
vt 0.777387 0.011787
vt 0.408748 0.593477
vt 0.399202 0.193505
vt 0.071231 0.063130
vt 0.872541 0.687064
vt 0.646547 0.014235
vt 0.000000 0.293203
vt 0.413101 0.178541
vt 0.729158 0.982847
vt 0.830689 0.824887
vt 0.435886 0.169518
vt 0.426930 0.173921
vt 0.431115 0.349434
vt 0.715111 0.523906
vt 0.484189 0.326367
vt 0.518253 0.029958
vt 0.729853 0.372976
vt 0.814727 0.980036
vt 0.797447 0.000000
vt 0.512284 0.017041
vt 0.453385 0.968216
vt 0.111935 0.087651
vt 0.181181 0.182864
vt 0.579368 0.188449
vn -0.868277 0.037145 0.494688
vn -0.868277 0.037145 0.494688
vn -0.868277 0.037145 0.494688
vn -0.868277 0.037145 0.494688
vn -0.761695 -0.627386 0.161889
vn -0.353899 -0.728922 0.586027
vn -0.437669 -0.546216 0.714209
vn -0.890269 -0.403323 0.211547
vn -0.625758 -0.175718 -0.759967
vn -0.625758 -0.175718 -0.759967
vn -0.625758 -0.175718 -0.759967
vn -0.625758 -0.175718 -0.759967
vn -0.353899 -0.728922 0.586027
vn 0.307946 -0.690881 0.654104
vn 0.241547 -0.509314 0.825987
vn -0.437669 -0.546216 0.714209
vn 0.423534 -0.416466 -0.804472
vn 0.027789 -0.375517 -0.926399
vn 0.027789 -0.375517 -0.926399
vn 0.420900 -0.416428 -0.805873
vn 0.827788 -0.433361 0.356322
vn 0.868247 -0.400113 -0.293354
vn 0.868247 -0.400112 -0.293354
vn 0.824247 -0.433672 0.364068
vn 0.998970 0.037811 -0.025082
vn 0.998970 0.037811 -0.025082
vn 0.998970 0.037811 -0.025082
vn 0.998970 0.037811 -0.025082
vn 0.894095 0.330701 -0.302045
vn 0.948012 0.317344 -0.023788
vn 0.948012 0.317344 -0.023788
vn 0.894096 0.330701 -0.302041
vn -0.928531 0.333043 0.164051
vn -0.817858 0.338129 -0.465595
vn -0.818982 0.338124 -0.463617
vn -0.927643 0.333033 0.169022
vn -0.309596 0.337307 -0.889030
vn 0.017858 0.318526 -0.947746
vn 0.017858 0.318526 -0.947746
vn -0.309257 0.337307 -0.889148
vn 0.623601 0.318218 0.714044
vn 0.314166 0.339568 0.886563
vn 0.313593 0.339568 0.886765
vn 0.623601 0.318218 0.714044
vn 0.768169 0.317429 -0.556018
vn 0.894095 0.330701 -0.302045
vn 0.894096 0.330701 -0.302041
vn 0.768169 0.317429 -0.556018
vn -0.829958 0.316491 0.459351
vn -0.928531 0.333043 0.164051
vn -0.927643 0.333033 0.169022
vn -0.829958 0.316491 0.459351
vn 0.021115 0.038949 -0.999018
vn 0.021115 0.038949 -0.999018
vn 0.021115 0.038949 -0.999018
vn 0.021115 0.038949 -0.999018
vn 0.878183 0.052462 0.475438
vn 0.878183 0.052462 0.475438
vn 0.878183 0.052462 0.475438
vn 0.878183 0.052462 0.475438
vn -0.925262 0.033997 0.377804
vn -0.925262 0.033997 0.377804
vn -0.925262 0.033997 0.377804
vn -0.925262 0.033997 0.377804
vn -0.037157 0.038976 0.998549
vn -0.037157 0.038976 0.998549
vn -0.037157 0.038976 0.998549
vn -0.035273 0.318027 0.947425
vn -0.035273 0.318027 0.947425
vn -0.035273 0.318027 0.947425
vn -0.035273 0.318027 0.947425
vn 0.313593 0.339568 0.886765
vn 0.314166 0.339568 0.886563
vn -0.035273 0.318092 0.947404
vn -0.035273 0.318092 0.947404
vn -0.984340 0.048510 0.169472
vn -0.984340 0.048510 0.169472
vn -0.984340 0.048510 0.169472
vn -0.984340 0.048510 0.169472
vn 0.304617 0.014339 -0.952367
vn 0.304617 0.014339 -0.952367
vn 0.304617 0.014339 -0.952367
vn 0.304617 0.014339 -0.952367
vn -0.635165 0.038976 -0.771392
vn -0.635165 0.038976 -0.771392
vn -0.635165 0.038976 -0.771392
vn -0.635165 0.038976 -0.771392
vn -0.309596 0.337307 -0.889030
vn -0.309257 0.337307 -0.889148
vn -0.602496 0.318664 -0.731746
vn -0.602496 0.318664 -0.731746
vn -0.818982 0.338124 -0.463617
vn -0.817858 0.338129 -0.465595
vn -0.602484 0.318725 -0.731729
vn -0.602484 0.318725 -0.731729
vn 0.000000 1.000000 0.000001
vn 0.000000 1.000000 0.000001
vn 0.000000 1.000000 0.000001
vn 0.000000 1.000000 0.000001
vn 0.886665 -0.016927 0.462103
vn 0.886665 -0.016927 0.462103
vn 0.886665 -0.016927 0.462103
vn 0.019412 0.022500 -0.999558
vn 0.019412 0.022500 -0.999558
vn 0.019412 0.022500 -0.999558
vn 0.809475 0.037811 -0.585936
vn 0.809475 0.037811 -0.585936
vn 0.809475 0.037811 -0.585936
vn 0.868247 -0.400112 -0.293354
vn 0.868247 -0.400113 -0.293354
vn 0.747657 -0.384869 -0.541188
vn 0.747657 -0.384869 -0.541188
vn 0.307946 -0.690881 0.654104
vn 0.827788 -0.433361 0.356322
vn 0.824247 -0.433672 0.364068
vn 0.241547 -0.509314 0.825987
vn -0.679323 0.005032 0.733822
vn -0.679323 0.005032 0.733822
vn -0.679323 0.005032 0.733822
vn -0.679323 0.005032 0.733822
vn -0.179479 -0.001907 -0.983760
vn -0.179479 -0.001907 -0.983760
vn -0.179479 -0.001907 -0.983760
vn -0.179479 -0.001907 -0.983760
vn -0.000000 -1.000000 -0.000001
vn -0.000000 -1.000000 -0.000001
vn -0.761695 -0.627386 0.161889
vn -0.000000 -1.000000 -0.000001
vn -0.990390 0.038037 -0.132971
vn -0.990390 0.038037 -0.132971
vn -0.990390 0.038037 -0.132971
vn -0.949705 -0.309562 -0.047249
vn -0.761695 -0.627386 0.161889
vn -0.890269 -0.403323 0.211547
vn -0.949705 -0.309562 -0.047249
vn -0.986563 -0.157314 -0.044119
vn -0.986563 -0.157314 -0.044119
vn -0.986563 -0.157314 -0.044119
vn -0.986563 -0.157314 -0.044119
vn 0.655207 0.038998 0.754442
vn 0.655207 0.038998 0.754442
vn 0.655207 0.038998 0.754442
vn 0.655207 0.038998 0.754442
vn 0.423534 -0.416466 -0.804472
vn 0.420900 -0.416428 -0.805873
vn 0.747657 -0.384869 -0.541188
vn 0.809475 0.037811 -0.585936
vn 0.809475 0.037811 -0.585936
vn 0.809475 0.037811 -0.585936
vn 0.809475 0.037811 -0.585936
vn -0.635165 0.038976 -0.771392
vn -0.635165 0.038976 -0.771392
vn -0.635165 0.038976 -0.771392
vn -0.990390 0.038037 -0.132971
vn -0.990390 0.038037 -0.132971
vn -0.990390 0.038037 -0.132971
vn -0.990390 0.038037 -0.132971
vn -0.037157 0.038976 0.998549
vn -0.037157 0.038976 0.998549
vn -0.037157 0.038976 0.998549
vn -0.037157 0.038976 0.998549
vn -0.000000 -1.000000 -0.000001
vn -0.000000 -1.000000 -0.000001
vn -0.000000 -1.000000 -0.000001
vn -0.000000 -1.000000 -0.000001
vn -0.000000 -1.000000 -0.000001
vn -0.000000 -1.000000 -0.000001
vn 0.307946 -0.690881 0.654104
vn -0.000000 -1.000000 -0.000001
vn -0.353899 -0.728922 0.586027
vn 0.000000 1.000000 0.000001
vn 0.000000 1.000000 -0.000000
vn 0.000000 1.000000 0.000001
vn 0.000000 1.000000 0.000001
vn 0.000000 1.000000 0.000001
vn 0.000000 1.000000 0.000001
vn 0.000000 1.000000 0.000001
vn 0.000000 1.000000 0.000001
vn 0.000000 1.000000 0.000001
vn 0.000000 1.000000 0.000001
vn 0.000000 1.000000 0.000001
s off
g palanca_roca1 palancas_prueba
usemtl Rock_15SG
f 8/103/1 24/53/2 31/104/3 15/14/4
f 16/43/5 7/87/6 8/97/7 15/90/8
f 12/82/9 5/81/10 6/46/11 11/55/12
f 7/87/13 10/56/14 9/19/15 8/97/16
f 1/58/17 12/22/18 11/67/19 2/2/20
f 3/60/21 14/26/22 13/89/23 4/17/24
f 13/7/25 29/32/26 20/39/27 4/54/28
f 30/12/29 19/21/30 20/11/31 29/83/32
f 32/106/33 21/65/34 22/5/35 31/110/36
f 28/45/37 17/105/38 18/25/39 27/27/40
f 19/21/41 26/3/42 25/84/43 20/11/44
f 17/105/45 30/12/46 29/83/47 18/25/48
f 23/96/49 32/106/50 31/110/51 24/24/52
f 11/55/53 27/66/54 18/69/55 2/74/56
f 33/10/57 35/13/58 34/88/59 36/20/60
f 37/34/61 33/85/62 36/33/63 38/107/64
s 1
f 36/100/65 8/52/66 9/95/67
s off
f 23/96/68 24/24/69 34/30/70 35/75/71
f 25/84/72 26/3/73 37/1/74 38/79/75
f 41/31/76 40/44/77 42/61/78 39/36/79
f 44/63/80 43/4/81 41/47/82 39/111/83
s 2
f 39/111/84 6/46/85 22/77/86 44/63/87
s off
f 28/45/88 27/27/89 42/98/90 40/102/91
f 22/5/92 21/65/93 43/59/94 44/6/95
s 3
f 33/8/96 37/1/97 26/3/98 19/21/99
s off
f 47/38/100 46/73/101 45/80/102
f 46/109/103 47/23/104 48/91/105
s 4
f 47/38/106 18/35/107 29/32/108
s 5
f 13/89/109 14/26/110 46/42/111 48/93/112
s off
f 10/56/113 3/60/114 4/17/115 9/19/116
f 51/92/117 50/41/118 52/86/119 49/40/120
f 52/68/121 50/29/122 54/78/123 53/48/124
s 6
f 50/76/125 55/112/126 16/43/127 54/16/128
s 7
f 52/86/129 31/104/130 22/28/131
s off
f 54/16/132 16/43/133 15/90/134 53/94/135
f 6/49/136 5/71/137 51/92/138 49/40/139
f 4/37/140 20/62/141 25/18/142 9/95/143
s 5
f 46/42/111 1/58/144 2/2/145 45/9/146
f 46/42/111 14/26/110 1/58/144
s 4
f 47/38/106 29/32/108 13/7/147 48/57/148
f 2/72/149 18/35/107 47/38/106 45/80/150
s 2
f 39/111/84 11/55/151 6/46/85
f 27/66/152 11/55/151 39/111/84 42/15/153
s 7
f 52/86/129 22/28/131 6/49/154 49/40/155
f 53/70/156 15/14/157 31/104/130 52/86/129
s 1
f 36/100/65 9/95/67 25/18/158 38/51/159
f 34/108/160 24/99/161 8/52/66 36/100/65
s 6
f 5/50/162 55/112/126 50/76/125 51/64/163
f 14/26/164 56/113/165 12/22/166 1/58/167
f 5/50/162 12/22/166 56/113/165 55/112/126
f 10/56/168 56/113/165 14/26/164 3/60/169
f 16/43/127 56/113/165 10/56/168 7/87/170
f 55/112/126 56/113/165 16/43/127
s 3
f 28/45/171 57/114/172 30/12/173 17/105/174
f 33/8/96 19/21/99 30/12/173 57/114/172
f 33/8/96 57/114/172 23/96/175 35/75/176
f 41/101/177 57/114/172 28/45/171 40/102/178
f 32/106/179 41/101/177 43/59/180 21/65/181
f 23/96/175 57/114/172 41/101/177 32/106/179
