# This file uses centimeters as units for non-parametric coordinates.

mtllib puente_soporte.mtl
g default
v -2.471928 -206.709015 -1.427169
v -2.471928 -206.709015 1.427168
v -0.000000 -206.709015 2.854337
v 2.471928 -206.709015 1.427169
v 2.471928 -206.709015 -1.427168
v 0.000000 -206.709015 -2.854337
v -2.471928 -0.532250 -1.427169
v -2.471928 -0.532250 1.427168
v -0.000000 -0.532250 2.854337
v 2.471928 -0.532250 1.427169
v 2.471928 -0.532250 -1.427168
v 0.000000 -0.532250 -2.854337
v 0.000000 -206.709015 0.000000
v 0.000000 -0.532250 0.000000
vt 0.429799 0.057443
vt 0.335144 0.057443
vt 0.287816 0.139418
vt 0.335144 0.221392
vt 0.429799 0.221392
vt 0.477127 0.139418
vt 0.263380 0.095372
vt 0.300680 0.095372
vt 0.337980 0.095372
vt 0.375280 0.095372
vt 0.412580 0.095372
vt 0.449879 0.095372
vt 0.487179 0.095372
vt 0.263380 0.966474
vt 0.300680 0.966474
vt 0.337980 0.966474
vt 0.375280 0.966474
vt 0.412580 0.966474
vt 0.449879 0.966474
vt 0.487179 0.966474
vt 0.429799 0.057444
vt 0.335144 0.057444
vt 0.287816 0.139418
vt 0.335144 0.221392
vt 0.429799 0.221392
vt 0.477127 0.139418
vt 0.382471 0.139936
vt 0.382471 0.139936
vn -0.866025 0.000000 -0.500000
vn -0.866026 0.000000 0.500000
vn -0.866026 0.000000 0.500000
vn -0.866025 0.000000 -0.500000
vn -0.000000 0.000000 1.000000
vn -0.000000 0.000000 1.000000
vn 0.866025 0.000000 0.500000
vn 0.866025 0.000000 0.500000
vn 0.866025 0.000000 -0.500000
vn 0.866025 0.000000 -0.500000
vn 0.000000 0.000000 -1.000000
vn 0.000000 0.000000 -1.000000
vn 0.000000 -1.000000 0.000001
vn 0.000000 -1.000000 0.000000
vn 0.000000 -1.000000 -0.000001
vn 0.000000 -1.000000 -0.000004
vn 0.000000 -1.000000 -0.000004
vn 0.000000 -1.000000 0.000000
vn 0.000000 -1.000000 0.000000
vn 0.000000 1.000000 0.000000
vn 0.000000 1.000000 0.000000
vn 0.000000 1.000000 0.000000
vn 0.000000 1.000000 0.000000
vn 0.000000 1.000000 0.000000
vn 0.000000 1.000000 0.000000
vn 0.000000 1.000000 0.000000
s 1
g puente_soporte
usemtl phong6SG
f 1/7/1 2/8/2 8/15/3 7/14/4
f 2/8/2 3/9/5 9/16/6 8/15/3
f 3/9/5 4/10/7 10/17/8 9/16/6
f 4/10/7 5/11/9 11/18/10 10/17/8
f 5/11/9 6/12/11 12/19/12 11/18/10
f 6/12/11 1/13/1 7/20/4 12/19/12
s 2
f 2/2/13 1/1/14 13/27/15
f 3/3/16 2/2/13 13/27/15
f 4/4/17 3/3/16 13/27/15
f 5/5/18 4/4/17 13/27/15
f 6/6/19 5/5/18 13/27/15
f 1/1/14 6/6/19 13/27/15
s 3
f 7/25/20 8/24/21 14/28/22
f 8/24/21 9/23/23 14/28/22
f 9/23/23 10/22/24 14/28/22
f 10/22/24 11/21/25 14/28/22
f 11/21/25 12/26/26 14/28/22
f 12/26/26 7/25/20 14/28/22
