# This file uses centimeters as units for non-parametric coordinates.

mtllib puente_boton_roca.mtl
g default
v -5.680681 0.000002 5.721460
v -6.686666 0.880028 6.686667
v -5.680681 0.000000 -5.721458
v -6.686666 0.880026 -6.686665
v 5.680680 0.000002 5.721462
v 5.788789 0.880028 6.251272
v 5.680680 0.000000 -5.721459
v 7.302947 0.880026 -7.123560
v 0.616282 0.880017 -9.663528
v 0.000000 -0.000000 -7.879297
v -0.897877 0.880020 8.791240
v 0.000000 0.000003 7.879299
v -8.760406 0.880036 0.000001
v -7.455082 0.000001 0.000001
v 8.760374 0.880036 0.000001
v 7.455053 0.000001 0.000001
v -4.977211 13.554151 4.994672
v -5.435984 13.053991 5.435983
v -4.972811 13.554150 -5.008864
v -5.436019 13.053652 -5.436020
v 4.127504 13.554152 4.545869
v 4.538051 13.054541 5.000532
v 5.555126 13.554150 -5.451033
v 6.052363 13.053041 -5.872977
v 0.616282 13.053266 -7.937871
v 0.624207 13.554149 -7.324071
v -0.897877 13.054317 7.065431
v -0.902853 13.554152 6.456678
v -7.121874 13.053816 -0.000001
v -6.526214 13.554151 -0.000001
v 7.121879 13.053589 -0.000001
v 6.527301 13.554150 -0.079558
v 1.496623 13.554150 -5.953846
v 2.663473 13.053181 -7.160247
v 2.290145 13.554149 -6.691255
v 2.160145 6.586510 -8.268142
v 1.430760 13.554150 -7.017697
v 1.451434 13.053230 -7.620639
v 3.658116 1.391108 6.988170
v 1.875184 13.554152 5.401425
v 1.940362 13.554152 4.985199
v 1.862257 13.054430 6.016962
v 2.290742 13.554151 5.243573
v 2.810199 13.054470 5.656876
v -7.719355 0.880032 3.356816
v -7.169961 0.407344 2.867557
v -7.161594 7.466032 2.296994
v -7.972516 0.880033 2.540508
v 6.866604 0.880031 3.983893
v 6.382397 0.000002 3.062090
v 6.460744 0.000002 3.206148
v 6.236049 8.471920 3.096151
v 7.242211 0.880032 3.193733
v 6.500077 0.000002 3.079319
v 5.445291 0.000002 2.612658
v 1.383208 0.000001 -0.265091
v -0.616639 13.554151 -0.566415
vt 0.710903 0.096699
vt 0.399202 0.091076
vt 0.723489 0.112826
vt 0.478551 0.676088
vt 0.417320 0.110751
vt 0.414595 0.154525
vt 0.008002 0.568351
vt 0.686382 0.102684
vt 0.399202 0.173339
vt 0.797645 0.521987
vt 0.723295 0.263448
vt 0.608007 0.326367
vt 0.780348 0.517782
vt 0.424356 0.519300
vt 0.485030 0.689202
vt 0.092053 0.069197
vt 0.308592 0.389897
vt 0.866419 0.978338
vt 0.128875 0.400840
vt 0.797645 0.349434
vt 0.710386 0.255952
vt 0.266582 0.011407
vt 0.797447 0.168044
vt 0.652601 0.000000
vt 0.477427 0.339867
vt 0.376068 0.244197
vt 0.408748 0.248467
vt 0.720307 0.640868
vt 0.767840 0.200278
vt 0.705481 0.067759
vt 0.333514 0.705686
vt 0.298482 0.568553
vt 0.763703 0.524353
vt 0.739702 0.357210
vt 0.301824 0.440151
vt 0.333514 0.410407
vt 1.000000 0.692411
vt 0.166562 0.514204
vt 0.301824 0.698109
vt 0.428025 0.612587
vt 0.409019 0.590011
vt 0.386776 0.178942
vt 0.050326 0.130736
vt 0.323806 0.704274
vt 0.422550 0.244301
vt 0.408748 0.980443
vt 0.487979 0.675247
vt 0.746971 0.179670
vt 0.430113 0.665680
vt 0.127856 0.016395
vt 0.845331 0.979030
vt 0.703703 0.692617
vt 0.720307 0.383944
vt 0.012118 0.727714
vt 0.549683 0.980443
vt 0.159811 0.363525
vt 0.009562 0.508343
vt 0.376068 0.102851
vt 0.427585 0.163393
vt 0.298537 0.358537
vt 0.311370 0.690334
vt 0.971706 0.982847
vt 0.465050 0.689202
vt 0.093771 0.066663
vt 0.430482 0.116860
vt 0.543205 0.689205
vt 0.286994 0.000000
vt 0.767840 0.000000
vt 0.656359 0.682006
vt 0.427297 0.594084
vt 0.409922 0.652638
vt 0.012108 0.410407
vt 0.000000 0.500871
vt 0.694157 0.971194
vt 0.697493 0.079517
vt 0.094507 0.070478
vt 0.428632 0.689200
vt 0.765034 0.200304
vt 0.724394 0.091993
vt 0.010063 0.489061
vt 0.415126 1.000000
vt 0.534858 1.000000
vt 0.612185 0.339867
vt 0.737425 0.108691
vt 0.763703 0.349434
vt 0.608618 0.594652
vt 0.050325 0.272081
vt 0.773250 0.503650
vt 0.399202 0.256267
vt 0.016425 0.122940
vt 0.777387 0.011787
vt 0.408748 0.593477
vt 0.399202 0.193505
vt 0.071231 0.063130
vt 0.872541 0.687064
vt 0.646547 0.014235
vt 0.000000 0.293203
vt 0.413101 0.178541
vt 0.729158 0.982847
vt 0.830689 0.824887
vt 0.435886 0.169518
vt 0.426930 0.173921
vt 0.431115 0.349434
vt 0.715111 0.523906
vt 0.484189 0.326367
vt 0.518253 0.029958
vt 0.729853 0.372976
vt 0.814727 0.980036
vt 0.797447 0.000000
vt 0.512284 0.017041
vt 0.453385 0.968216
vt 0.111935 0.087651
vt 0.181181 0.182864
vt 0.579368 0.188449
vn 0.973881 0.125292 -0.189359
vn 0.973881 0.125292 -0.189359
vn 0.973881 0.125292 -0.189359
vn 0.973881 0.125292 -0.189359
vn 0.340825 -0.939282 0.039854
vn 0.203498 -0.963850 -0.171993
vn 0.315934 -0.911451 -0.263520
vn 0.552972 -0.831618 0.051314
vn 0.303631 -0.518532 0.799332
vn 0.303631 -0.518532 0.799332
vn 0.303631 -0.518532 0.799332
vn 0.303631 -0.518532 0.799332
vn 0.203498 -0.963850 -0.171993
vn -0.033538 -0.955694 -0.292444
vn 0.018397 -0.895379 -0.444926
vn 0.315934 -0.911451 -0.263520
vn -0.391688 -0.841299 0.372555
vn -0.204741 -0.809051 0.550924
vn -0.204741 -0.809051 0.550924
vn -0.390494 -0.841272 0.373866
vn -0.388228 -0.852904 -0.349047
vn -0.559009 -0.829162 0.000000
vn -0.559009 -0.829162 0.000000
vn -0.384665 -0.853109 -0.352473
vn -0.947326 0.127505 -0.293795
vn -0.947326 0.127505 -0.293795
vn -0.947326 0.127505 -0.293795
vn -0.947326 0.127505 -0.293795
vn -0.643175 0.765719 -0.000027
vn -0.630799 0.750878 -0.195641
vn -0.630799 0.750878 -0.195641
vn -0.643175 0.765719 -0.000030
vn 0.632902 0.768223 0.096271
vn 0.421397 0.773564 0.473310
vn 0.422543 0.773560 0.472294
vn 0.633422 0.768212 0.092882
vn 0.005890 0.772711 0.634731
vn -0.222632 0.752230 0.620149
vn -0.222632 0.752230 0.620149
vn 0.005648 0.772711 0.634733
vn -0.251914 0.751878 -0.609277
vn -0.009308 0.775052 -0.631828
vn -0.008900 0.775052 -0.631834
vn -0.251914 0.751878 -0.609277
vn -0.630700 0.750974 0.195588
vn -0.643175 0.765719 -0.000027
vn -0.643175 0.765719 -0.000030
vn -0.630700 0.750974 0.195588
vn 0.650907 0.749896 -0.118224
vn 0.632902 0.768223 0.096271
vn 0.633422 0.768212 0.092882
vn 0.650907 0.749896 -0.118224
vn -0.337097 0.131283 0.932272
vn -0.337097 0.131283 0.932272
vn -0.337097 0.131283 0.932272
vn -0.337097 0.131283 0.932272
vn -0.670142 0.175708 -0.721136
vn -0.670142 0.175708 -0.721136
vn -0.670142 0.175708 -0.721136
vn -0.670142 0.175708 -0.721136
vn 0.991489 0.114807 -0.061384
vn 0.991489 0.114807 -0.061384
vn 0.991489 0.114807 -0.061384
vn 0.991489 0.114807 -0.061384
vn 0.352022 0.131371 -0.926727
vn 0.352022 0.131371 -0.926727
vn 0.352022 0.131371 -0.926727
vn 0.234219 0.751660 -0.616563
vn 0.234219 0.751660 -0.616563
vn 0.234219 0.751660 -0.616563
vn 0.234219 0.751660 -0.616563
vn -0.008900 0.775052 -0.631834
vn -0.009308 0.775052 -0.631828
vn 0.234189 0.751734 -0.616484
vn 0.234189 0.751734 -0.616484
vn 0.974780 0.162802 0.152643
vn 0.974780 0.162802 0.152643
vn 0.974780 0.162802 0.152643
vn 0.974780 0.162802 0.152643
vn -0.592793 0.048662 0.803883
vn -0.592793 0.048662 0.803883
vn -0.592793 0.048662 0.803883
vn -0.592793 0.048662 0.803883
vn 0.352022 0.131371 0.926727
vn 0.352022 0.131371 0.926727
vn 0.352022 0.131371 0.926727
vn 0.352022 0.131371 0.926727
vn 0.005890 0.772711 0.634731
vn 0.005648 0.772711 0.634733
vn 0.233900 0.752387 0.615796
vn 0.233900 0.752387 0.615796
vn 0.422543 0.773560 0.472294
vn 0.421397 0.773564 0.473310
vn 0.233872 0.752457 0.615721
vn 0.233872 0.752457 0.615721
vn 0.000000 1.000000 -0.000000
vn 0.000000 1.000000 -0.000000
vn 0.000000 1.000000 -0.000000
vn 0.000000 1.000000 -0.000000
vn -0.691056 -0.057421 -0.720517
vn -0.691056 -0.057421 -0.720517
vn -0.691056 -0.057421 -0.720517
vn -0.337443 0.076240 0.938254
vn -0.337443 0.076240 0.938254
vn -0.337443 0.076240 0.938254
vn -0.947326 0.127506 0.293795
vn -0.947326 0.127506 0.293795
vn -0.947326 0.127506 0.293795
vn -0.559009 -0.829162 0.000000
vn -0.559009 -0.829162 0.000000
vn -0.550793 -0.816975 0.170817
vn -0.550793 -0.816975 0.170817
vn -0.033538 -0.955694 -0.292444
vn -0.388228 -0.852904 -0.349047
vn -0.384665 -0.853109 -0.352473
vn 0.018397 -0.895379 -0.444926
vn 0.878355 0.017094 -0.477703
vn 0.878355 0.017094 -0.477703
vn 0.878355 0.017094 -0.477703
vn 0.878355 0.017094 -0.477703
vn -0.144855 -0.006480 0.989432
vn -0.144855 -0.006480 0.989432
vn -0.144855 -0.006480 0.989432
vn -0.144855 -0.006480 0.989432
vn -0.000000 -1.000000 0.000000
vn -0.000000 -1.000000 0.000000
vn 0.340825 -0.939282 0.039854
vn -0.000000 -1.000000 0.000000
vn 0.888965 0.128253 0.439650
vn 0.888965 0.128253 0.439650
vn 0.888965 0.128253 0.439650
vn 0.623911 -0.741775 0.245975
vn 0.340825 -0.939282 0.039854
vn 0.552972 -0.831618 0.051314
vn 0.623911 -0.741775 0.245975
vn 0.819781 -0.475971 0.318451
vn 0.819781 -0.475971 0.318451
vn 0.819781 -0.475971 0.318451
vn 0.819781 -0.475971 0.318451
vn -0.376239 0.131444 -0.917152
vn -0.376239 0.131444 -0.917152
vn -0.376239 0.131444 -0.917152
vn -0.376239 0.131444 -0.917152
vn -0.391688 -0.841299 0.372555
vn -0.390494 -0.841272 0.373866
vn -0.550793 -0.816975 0.170817
vn -0.947326 0.127506 0.293795
vn -0.947326 0.127506 0.293795
vn -0.947326 0.127506 0.293795
vn -0.947326 0.127506 0.293795
vn 0.352022 0.131371 0.926727
vn 0.352022 0.131371 0.926727
vn 0.352022 0.131371 0.926727
vn 0.888965 0.128253 0.439650
vn 0.888965 0.128253 0.439650
vn 0.888965 0.128253 0.439650
vn 0.888965 0.128253 0.439650
vn 0.352022 0.131371 -0.926727
vn 0.352022 0.131371 -0.926727
vn 0.352022 0.131371 -0.926727
vn 0.352022 0.131371 -0.926727
vn -0.000000 -1.000000 0.000000
vn -0.000000 -1.000000 0.000000
vn -0.000000 -1.000000 0.000000
vn 0.000000 -1.000000 0.000000
vn -0.000000 -1.000000 0.000000
vn -0.000000 -1.000000 0.000000
vn -0.033538 -0.955694 -0.292444
vn -0.000000 -1.000000 0.000000
vn 0.203498 -0.963850 -0.171993
vn 0.000000 1.000000 -0.000000
vn 0.000000 1.000000 -0.000000
vn 0.000000 1.000000 -0.000000
vn 0.000000 1.000000 -0.000000
vn 0.000000 1.000000 -0.000000
vn 0.000000 1.000000 -0.000000
vn 0.000000 1.000000 -0.000000
vn 0.000000 1.000000 -0.000000
vn 0.000000 1.000000 -0.000000
vn 0.000000 1.000000 -0.000000
vn 0.000000 1.000000 -0.000000
s off
g puente_boton_roca
usemtl Rock_15SG
f 8/103/1 24/53/2 31/104/3 15/14/4
f 16/43/5 7/87/6 8/97/7 15/90/8
f 12/82/9 5/81/10 6/46/11 11/55/12
f 7/87/13 10/56/14 9/19/15 8/97/16
f 1/58/17 12/22/18 11/67/19 2/2/20
f 3/60/21 14/26/22 13/89/23 4/17/24
f 13/7/25 29/32/26 20/39/27 4/54/28
f 30/12/29 19/21/30 20/11/31 29/83/32
f 32/106/33 21/65/34 22/5/35 31/110/36
f 28/45/37 17/105/38 18/25/39 27/27/40
f 19/21/41 26/3/42 25/84/43 20/11/44
f 17/105/45 30/12/46 29/83/47 18/25/48
f 23/96/49 32/106/50 31/110/51 24/24/52
f 11/55/53 27/66/54 18/69/55 2/74/56
f 33/10/57 35/13/58 34/88/59 36/20/60
f 37/34/61 33/85/62 36/33/63 38/107/64
s 1
f 36/100/65 8/52/66 9/95/67
s off
f 23/96/68 24/24/69 34/30/70 35/75/71
f 25/84/72 26/3/73 37/1/74 38/79/75
f 41/31/76 40/44/77 42/61/78 39/36/79
f 44/63/80 43/4/81 41/47/82 39/111/83
s 2
f 39/111/84 6/46/85 22/77/86 44/63/87
s off
f 28/45/88 27/27/89 42/98/90 40/102/91
f 22/5/92 21/65/93 43/59/94 44/6/95
s 3
f 33/8/96 37/1/97 26/3/98 19/21/99
s off
f 47/38/100 46/73/101 45/80/102
f 46/109/103 47/23/104 48/91/105
s 4
f 47/38/106 18/35/107 29/32/108
s 5
f 13/89/109 14/26/110 46/42/111 48/93/112
s off
f 10/56/113 3/60/114 4/17/115 9/19/116
f 51/92/117 50/41/118 52/86/119 49/40/120
f 52/68/121 50/29/122 54/78/123 53/48/124
s 6
f 50/76/125 55/112/126 16/43/127 54/16/128
s 7
f 52/86/129 31/104/130 22/28/131
s off
f 54/16/132 16/43/133 15/90/134 53/94/135
f 6/49/136 5/71/137 51/92/138 49/40/139
f 4/37/140 20/62/141 25/18/142 9/95/143
s 5
f 46/42/111 1/58/144 2/2/145 45/9/146
f 46/42/111 14/26/110 1/58/144
s 4
f 47/38/106 29/32/108 13/7/147 48/57/148
f 2/72/149 18/35/107 47/38/106 45/80/150
s 2
f 39/111/84 11/55/151 6/46/85
f 27/66/152 11/55/151 39/111/84 42/15/153
s 7
f 52/86/129 22/28/131 6/49/154 49/40/155
f 53/70/156 15/14/157 31/104/130 52/86/129
s 1
f 36/100/65 9/95/67 25/18/158 38/51/159
f 34/108/160 24/99/161 8/52/66 36/100/65
s 6
f 5/50/162 55/112/126 50/76/125 51/64/163
f 14/26/164 56/113/165 12/22/166 1/58/167
f 5/50/162 12/22/166 56/113/165 55/112/126
f 10/56/168 56/113/165 14/26/164 3/60/169
f 16/43/127 56/113/165 10/56/168 7/87/170
f 55/112/126 56/113/165 16/43/127
s 3
f 28/45/171 57/114/172 30/12/173 17/105/174
f 33/8/96 19/21/99 30/12/173 57/114/172
f 33/8/96 57/114/172 23/96/175 35/75/176
f 41/101/177 57/114/172 28/45/171 40/102/178
f 32/106/179 41/101/177 43/59/180 21/65/181
f 23/96/175 57/114/172 41/101/177 32/106/179
