# This file uses centimeters as units for non-parametric coordinates.

mtllib puente_boton.mtl
g default
v 3.391728 13.518747 -1.797286
v 2.384400 13.518747 -3.060436
v 0.928768 13.518747 -3.761432
v -0.686862 13.518747 -3.761432
v -2.142493 13.518747 -3.060437
v -3.149822 13.518747 -1.797287
v -3.509334 13.518747 -0.222165
v -3.149823 13.518747 1.352957
v -2.142495 13.518747 2.616108
v -0.686863 13.518747 3.317103
v 0.928767 13.518747 3.317104
v 2.384399 13.518747 2.616108
v 3.391728 13.518747 1.352958
v 3.751239 13.518747 -0.222164
v 3.391728 16.040833 -1.797286
v 2.384400 16.040833 -3.060436
v 0.928768 16.040833 -3.761432
v -0.686862 16.040833 -3.761432
v -2.142493 16.040833 -3.060437
v -3.149822 16.040833 -1.797287
v -3.509334 16.040833 -0.222165
v -3.149823 16.040833 1.352957
v -2.142495 16.040833 2.616108
v -0.686863 16.040833 3.317103
v 0.928767 16.040833 3.317104
v 2.384399 16.040833 2.616108
v 3.391728 16.040833 1.352958
v 3.751239 16.040833 -0.222164
v 0.120952 13.518747 -0.222164
v 0.120952 16.040833 -0.222164
vt 0.909129 0.682004
vt 0.857227 0.616922
vt 0.782227 0.580803
vt 0.698983 0.580803
vt 0.623983 0.616922
vt 0.572081 0.682004
vt 0.553558 0.763161
vt 0.572081 0.844317
vt 0.623983 0.909400
vt 0.698983 0.945518
vt 0.782227 0.945518
vt 0.857227 0.909400
vt 0.909129 0.844317
vt 0.927652 0.763161
vt 0.514222 0.330775
vt 0.547248 0.330775
vt 0.580274 0.330775
vt 0.613299 0.330775
vt 0.646325 0.330775
vt 0.679350 0.330775
vt 0.712376 0.330775
vt 0.745402 0.330775
vt 0.778427 0.330775
vt 0.811453 0.330775
vt 0.844478 0.330775
vt 0.877504 0.330775
vt 0.910530 0.330775
vt 0.943555 0.330775
vt 0.976581 0.330775
vt 0.514222 0.526258
vt 0.547248 0.526258
vt 0.580274 0.526258
vt 0.613299 0.526258
vt 0.646325 0.526258
vt 0.679350 0.526258
vt 0.712376 0.526258
vt 0.745402 0.526258
vt 0.778427 0.526258
vt 0.811453 0.526258
vt 0.844478 0.526258
vt 0.877504 0.526258
vt 0.910530 0.526258
vt 0.943555 0.526258
vt 0.976581 0.526258
vt 0.909129 0.682004
vt 0.857227 0.616922
vt 0.782227 0.580803
vt 0.698983 0.580803
vt 0.623983 0.616922
vt 0.572081 0.682004
vt 0.553558 0.763161
vt 0.572081 0.844317
vt 0.623983 0.909400
vt 0.698983 0.945518
vt 0.782227 0.945518
vt 0.857227 0.909400
vt 0.909129 0.844317
vt 0.927652 0.763161
vt 0.740605 0.755679
vt 0.740605 0.755679
vn 0.900969 0.000000 -0.433884
vn 0.623490 0.000000 -0.781831
vn 0.623490 0.000000 -0.781831
vn 0.900969 0.000000 -0.433884
vn 0.222521 0.000000 -0.974928
vn 0.222521 0.000000 -0.974928
vn -0.222521 0.000000 -0.974928
vn -0.222521 0.000000 -0.974928
vn -0.623490 0.000000 -0.781832
vn -0.623490 0.000000 -0.781832
vn -0.900969 0.000000 -0.433884
vn -0.900969 0.000000 -0.433884
vn -1.000000 0.000000 -0.000000
vn -1.000000 0.000000 -0.000000
vn -0.900969 0.000000 0.433884
vn -0.900969 0.000000 0.433884
vn -0.623490 0.000000 0.781831
vn -0.623490 0.000000 0.781831
vn -0.222521 0.000000 0.974928
vn -0.222521 0.000000 0.974928
vn 0.222521 0.000000 0.974928
vn 0.222521 0.000000 0.974928
vn 0.623490 0.000000 0.781832
vn 0.623490 0.000000 0.781832
vn 0.900969 0.000000 0.433884
vn 0.900969 0.000000 0.433884
vn 1.000000 0.000000 0.000000
vn 1.000000 0.000000 0.000000
vn 0.000000 -1.000000 0.000000
vn 0.000000 -1.000000 0.000000
vn 0.000000 -1.000000 0.000000
vn 0.000000 -1.000000 0.000000
vn 0.000000 -1.000000 -0.000000
vn 0.000000 -1.000000 0.000000
vn 0.000000 -1.000000 0.000000
vn 0.000000 -1.000000 0.000000
vn 0.000000 -1.000000 0.000000
vn 0.000000 -1.000000 -0.000000
vn 0.000000 -1.000000 -0.000000
vn 0.000000 -1.000000 -0.000000
vn 0.000000 -1.000000 0.000000
vn 0.000000 -1.000000 0.000000
vn 0.000000 -1.000000 0.000000
vn 0.000000 1.000000 0.000000
vn 0.000000 1.000000 -0.000000
vn 0.000000 1.000000 -0.000001
vn 0.000000 1.000000 0.000000
vn 0.000000 1.000000 0.000001
vn 0.000000 1.000000 0.000000
vn 0.000000 1.000000 0.000000
vn 0.000000 1.000000 -0.000000
vn 0.000000 1.000000 -0.000001
vn 0.000000 1.000000 -0.000000
vn 0.000000 1.000000 0.000001
vn 0.000000 1.000000 0.000001
vn 0.000000 1.000000 0.000001
vn 0.000000 1.000000 0.000000
vn 0.000000 1.000000 0.000000
s 1
g puente_boton
usemtl phong6SG
f 1/15/1 2/16/2 16/31/3 15/30/4
f 2/16/2 3/17/5 17/32/6 16/31/3
f 3/17/5 4/18/7 18/33/8 17/32/6
f 4/18/7 5/19/9 19/34/10 18/33/8
f 5/19/9 6/20/11 20/35/12 19/34/10
f 6/20/11 7/21/13 21/36/14 20/35/12
f 7/21/13 8/22/15 22/37/16 21/36/14
f 8/22/15 9/23/17 23/38/18 22/37/16
f 9/23/17 10/24/19 24/39/20 23/38/18
f 10/24/19 11/25/21 25/40/22 24/39/20
f 11/25/21 12/26/23 26/41/24 25/40/22
f 12/26/23 13/27/25 27/42/26 26/41/24
f 13/27/25 14/28/27 28/43/28 27/42/26
f 14/28/27 1/29/1 15/44/4 28/43/28
s 2
f 3/3/29 2/2/30 29/59/31 4/4/32
f 5/5/33 4/4/32 29/59/31 6/6/34
f 7/7/35 6/6/34 29/59/31 8/8/36
f 9/9/37 8/8/36 29/59/31 10/10/38
f 11/11/39 10/10/38 29/59/31 12/12/40
f 13/13/41 12/12/40 29/59/31 14/14/42
f 1/1/43 14/14/42 29/59/31 2/2/30
s 3
f 30/60/44 16/56/45 17/55/46 18/54/47
f 30/60/44 18/54/47 19/53/48 20/52/49
f 30/60/44 20/52/49 21/51/50 22/50/51
f 30/60/44 22/50/51 23/49/52 24/48/53
f 30/60/44 24/48/53 25/47/54 26/46/55
f 30/60/44 26/46/55 27/45/56 28/58/57
f 30/60/44 28/58/57 15/57/58 16/56/45
