# This file uses centimeters as units for non-parametric coordinates.

mtllib estrella.mtl
g default
v -20.836290 -30.338011 -1.087805
v 33.717346 9.271362 -1.087805
v -33.681808 9.303120 -1.087805
v 0.003055 33.763542 -1.087805
v 20.809074 -30.326111 -1.087805
v -11.769156 14.901550 -1.087805
v 0.000000 -1.657619 5.401465
v 12.027363 14.891624 -1.087805
v 0.000000 -1.657619 -1.087805
v -19.455212 -7.980080 -1.087805
v 19.458267 -7.981426 -1.087805
v -0.019336 -22.116760 -1.087805
v -20.836290 -30.338009 0.870905
v -20.604656 -30.019180 1.135760
v -0.019135 -21.889458 1.135729
v -0.019336 -22.116760 0.870890
v -33.681808 9.303120 0.870712
v -33.307186 9.181221 1.135775
v -11.769156 14.901550 0.870519
v -11.637621 14.716484 1.136015
v -19.238934 -7.909828 1.135746
v -19.455212 -7.980080 0.870851
v 33.717346 9.271362 0.870853
v 33.342602 9.149887 1.135748
v 11.893737 14.707718 1.135739
v 12.027363 14.891624 0.870890
v 0.003055 33.763542 0.870264
v 0.003055 33.368782 1.135880
v 20.809074 -30.326111 0.870890
v 20.577883 -30.007584 1.135729
v 19.242069 -7.911163 1.135743
v 19.458267 -7.981426 0.870830
vt 0.675590 0.702598
vt 0.819952 0.829338
vt 0.327665 0.702751
vt 0.499785 0.992716
vt 0.007284 0.616686
vt 0.215289 0.350992
vt 0.784236 0.350971
vt 0.992716 0.616198
vt 0.499458 0.133669
vt 0.195096 0.007284
vt 0.803986 0.007467
vt 0.240583 0.080789
vt 0.257521 0.107701
vt 0.273579 0.381037
vt 0.257763 0.373222
vt 0.499538 0.188320
vt 0.499566 0.208208
vt 0.758636 0.080945
vt 0.741746 0.107845
vt 0.080789 0.599279
vt 0.108164 0.592332
vt 0.362956 0.660764
vt 0.353375 0.672504
vt 0.499827 0.891360
vt 0.499817 0.919211
vt 0.919211 0.598863
vt 0.891834 0.591944
vt 0.726040 0.381020
vt 0.741833 0.373204
vt 0.649395 0.672374
vt 0.639638 0.660655
vt 0.499791 0.458332
vt 0.786357 0.743716
vt 0.859353 0.657587
vt 0.887068 0.772545
vt 0.989101 0.820138
vt 0.732130 0.833183
vt 0.674287 0.729943
vt 0.894953 0.879882
vt 0.800219 0.917001
vt 0.884075 0.993184
vt 0.689683 0.937478
vn -0.000000 -0.000000 -1.000000
vn 0.000000 -0.000000 -1.000000
vn 0.000000 -0.000000 -1.000000
vn 0.000000 -0.000000 -1.000000
vn 0.000000 -0.000000 -1.000000
vn 0.000000 -0.000000 -1.000000
vn -0.000000 -0.000000 -1.000000
vn -0.000000 -0.000000 -1.000000
vn 0.000000 0.000000 -1.000000
vn 0.000000 0.000000 -1.000000
vn 0.000000 0.000000 -1.000000
vn -0.779906 0.048177 0.624040
vn -0.779906 0.048177 0.624040
vn -0.779906 0.048177 0.624040
vn -0.779906 0.048177 0.624040
vn 0.287085 -0.726929 0.623824
vn 0.287085 -0.726929 0.623824
vn 0.287085 -0.726929 0.623824
vn 0.287085 -0.726929 0.623824
vn -0.286501 -0.726899 0.624127
vn -0.286501 -0.726899 0.624127
vn -0.286501 -0.726899 0.624127
vn -0.286501 -0.726899 0.624127
vn -0.193589 0.757791 0.623118
vn -0.193589 0.757791 0.623118
vn -0.193589 0.757791 0.623118
vn -0.193589 0.757791 0.623118
vn -0.603207 -0.496523 0.624185
vn -0.603207 -0.496523 0.624185
vn -0.603207 -0.496523 0.624185
vn -0.603207 -0.496523 0.624185
vn -0.666282 0.415837 0.618989
vn -0.666282 0.415837 0.618989
vn -0.666282 0.415837 0.618989
vn -0.666282 0.415837 0.618989
vn 0.602439 -0.497903 0.623826
vn 0.602439 -0.497903 0.623826
vn 0.602439 -0.497903 0.623826
vn 0.602439 -0.497903 0.623826
vn 0.195988 0.756362 0.624104
vn 0.195988 0.756362 0.624104
vn 0.195988 0.756362 0.624104
vn 0.195988 0.756362 0.624104
vn 0.658982 0.419894 0.624045
vn 0.658982 0.419894 0.624045
vn 0.658982 0.419893 0.624045
vn 0.658982 0.419894 0.624045
vn 0.779940 0.047151 0.624075
vn 0.779940 0.047151 0.624076
vn 0.779940 0.047151 0.624075
vn 0.779940 0.047151 0.624075
vn 0.770813 -0.637061 0.000000
vn 0.770813 -0.637061 0.000000
vn 0.770813 -0.637061 0.000000
vn 0.770813 -0.637061 0.000000
vn -0.190184 0.118699 0.974546
vn -0.190184 0.118699 0.974546
vn -0.190184 0.118699 0.974546
vn -0.848332 0.529464 0.000000
vn -0.848332 0.529464 0.000000
vn -0.848332 0.529464 0.000000
vn -0.848332 0.529464 0.000000
vn 0.843360 0.537350 0.000000
vn 0.843360 0.537350 0.000000
vn 0.843360 0.537350 0.000000
vn 0.843360 0.537350 0.000000
vn -0.772076 -0.635531 0.000000
vn -0.772076 -0.635531 0.000000
vn -0.772076 -0.635531 0.000000
vn -0.772076 -0.635531 0.000000
vn -0.247537 0.968878 0.000000
vn -0.247537 0.968878 0.000000
vn -0.247537 0.968878 0.000000
vn -0.247537 0.968878 0.000000
vn -0.054923 0.214971 0.975075
vn -0.054923 0.214971 0.975075
vn -0.054923 0.214971 0.975075
vn 0.367322 -0.930094 0.000001
vn 0.367322 -0.930094 0.000001
vn 0.367322 -0.930094 0.000001
vn 0.367322 -0.930094 0.000001
vn 0.081237 -0.205699 0.975238
vn 0.081237 -0.205699 0.975238
vn 0.081237 -0.205699 0.975238
vn 0.055432 0.213926 0.975276
vn 0.055432 0.213926 0.975276
vn 0.055432 0.213926 0.975276
vn 0.250834 0.968030 0.000000
vn 0.250834 0.968030 0.000000
vn 0.250834 0.968030 0.000000
vn 0.250834 0.968030 0.000000
vn -0.998098 0.061654 -0.000000
vn -0.998098 0.061654 -0.000000
vn -0.998098 0.061654 -0.000000
vn -0.998098 0.061654 -0.000000
vn -0.081018 -0.205555 0.975286
vn -0.081018 -0.205555 0.975286
vn -0.081018 -0.205555 0.975286
vn 0.220541 0.013332 0.975287
vn 0.220541 0.013332 0.975286
vn 0.220541 0.013332 0.975287
vn 0.998178 0.060343 0.000000
vn 0.998178 0.060343 0.000000
vn 0.998178 0.060343 0.000000
vn 0.998178 0.060343 0.000000
vn -0.366688 -0.930344 0.000000
vn -0.366688 -0.930344 0.000000
vn -0.366688 -0.930344 0.000000
vn -0.366688 -0.930344 0.000000
vn -0.220666 0.013631 0.975254
vn -0.220666 0.013631 0.975254
vn -0.220666 0.013631 0.975254
vn -0.170605 -0.140433 0.975281
vn -0.170605 -0.140433 0.975281
vn -0.170605 -0.140433 0.975281
vn 0.186383 0.118754 0.975274
vn 0.186383 0.118755 0.975274
vn 0.186383 0.118754 0.975274
vn 0.170425 -0.140852 0.975252
vn 0.170425 -0.140852 0.975252
vn 0.170425 -0.140852 0.975252
s 1
g estrella_uv
usemtl Text001SG
f 8/39/1 9/2/2 6/40/3 4/41/4
f 3/42/5 6/40/3 9/2/2 10/37/6
f 11/35/7 9/2/2 8/39/1 2/36/8
f 10/37/6 9/2/2 12/33/9 1/38/10
f 9/2/2 11/35/7 5/34/11 12/33/9
s off
f 13/12/12 14/13/13 21/14/14 22/15/15
f 14/13/16 13/12/17 16/16/18 15/17/19
f 15/17/20 16/16/21 29/18/22 30/19/23
f 17/20/24 18/21/25 20/22/26 19/23/27
f 18/21/28 17/20/29 22/15/30 21/14/31
f 19/23/32 20/22/33 28/24/34 27/25/35
f 23/26/36 24/27/37 31/28/38 32/29/39
f 24/27/40 23/26/41 26/30/42 25/31/43
f 25/31/44 26/30/45 27/25/46 28/24/47
f 30/19/48 29/18/49 32/29/50 31/28/51
f 32/29/52 11/7/53 2/8/54 23/26/55
f 20/22/56 7/32/57 28/24/58
f 6/3/59 19/23/60 27/25/61 4/4/62
f 26/30/63 8/1/64 4/4/65 27/25/66
f 3/5/67 10/6/68 22/15/69 17/20/70
f 17/20/71 19/23/72 6/3/73 3/5/74
f 18/21/75 7/32/76 20/22/77
f 1/10/78 12/9/79 16/16/80 13/12/81
f 14/13/82 15/17/83 7/32/84
f 25/31/85 7/32/86 24/27/87
f 2/8/88 8/1/89 26/30/90 23/26/91
f 22/15/92 10/6/93 1/10/94 13/12/95
f 7/32/96 15/17/97 30/19/98
f 31/28/99 7/32/100 30/19/101
f 29/18/102 5/11/103 11/7/104 32/29/105
f 16/16/106 12/9/107 5/11/108 29/18/109
f 14/13/110 7/32/111 21/14/112
f 21/14/113 7/32/114 18/21/115
f 28/24/116 7/32/117 25/31/118
f 24/27/119 7/32/120 31/28/121
