# This file uses centimeters as units for non-parametric coordinates.

mtllib puente.mtl
g default
v -52.537880 -13.369430 12.267031
v -61.691132 -12.674122 14.055792
v -52.537880 -13.554151 -10.262688
v -61.691132 -12.674125 -12.863406
v 59.457535 -13.554149 11.455080
v 60.441196 -12.674123 12.882635
v 51.687389 -13.554151 -12.084881
v 61.785454 -12.674125 -13.644963
v 5.607426 -12.674133 -14.682728
v 0.000000 -13.554151 -11.074354
v 25.680185 -12.674130 15.005226
v 0.000000 -12.934074 11.680481
v -62.249149 -12.674114 0.000003
v -53.100563 -13.554150 0.000003
v 61.052799 -12.674114 0.000003
v 52.249825 -13.554150 0.000003
v -62.716545 0.000000 14.877578
v -66.890831 -0.500159 16.066675
v -62.676506 -0.000001 -15.219830
v -66.891144 -0.500499 -16.370787
v 62.898895 0.000001 14.700724
v 66.634377 -0.499610 15.925797
v 61.945541 -0.000001 -15.497166
v 66.469803 -0.501110 -16.634079
v 5.607426 -0.500885 -16.545649
v 5.679537 -0.080532 -15.808738
v -8.169608 -0.499834 16.265224
v -8.214884 0.000001 15.034092
v -67.344650 -0.500335 -0.000003
v -63.169868 0.000000 -0.000003
v 66.646606 -0.500562 -0.000003
v 63.605556 -0.000001 -0.214366
v 13.617478 -0.000001 -15.661268
v 18.984943 -0.500970 -16.716511
v 15.588103 -0.000002 -15.957348
v 19.654734 -6.967641 -15.523903
v 13.018201 -0.000001 -16.395573
v 13.206311 -0.581450 -16.582512
v 33.284477 -10.965745 13.941334
v 19.021658 0.000001 16.154860
v 19.614697 0.000001 15.033352
v 19.551212 -0.898375 16.212505
v 21.705315 0.000000 15.562342
v 23.958914 -0.499681 16.344406
v -61.819977 -12.674118 9.044828
v -54.774605 -13.146806 7.726538
v -59.738396 -6.088119 6.189176
v -62.187080 -12.674117 6.845315
v 60.555157 -12.674120 10.959619
v 53.400356 -13.554149 8.250702
v 54.113220 -13.554149 8.638861
v 66.017303 -5.082231 8.342476
v 60.669930 -12.674118 8.605410
v 54.471107 -13.554149 8.297125
v 49.545631 -13.554149 7.039721
v 12.585534 -13.554150 -0.714279
v -5.610679 0.000000 -1.438634
vt 0.710903 0.096699
vt 0.399202 0.091076
vt 0.723489 0.112826
vt 0.478551 0.676088
vt 0.417320 0.110751
vt 0.414595 0.154525
vt 0.008002 0.568351
vt 0.686382 0.102684
vt 0.399202 0.173339
vt 0.797645 0.521987
vt 0.723295 0.263448
vt 0.608007 0.326367
vt 0.780348 0.517782
vt 0.424356 0.519300
vt 0.485030 0.689202
vt 0.092053 0.069197
vt 0.308592 0.389897
vt 0.866419 0.978338
vt 0.128875 0.400840
vt 0.797645 0.349434
vt 0.710386 0.255952
vt 0.266582 0.011407
vt 0.797447 0.168044
vt 0.652601 0.000000
vt 0.477427 0.339867
vt 0.376068 0.244197
vt 0.408748 0.248467
vt 0.720307 0.640868
vt 0.767840 0.200278
vt 0.705481 0.067759
vt 0.333514 0.705686
vt 0.298482 0.568553
vt 0.763703 0.524353
vt 0.739702 0.357210
vt 0.301824 0.440151
vt 0.333514 0.410407
vt 1.000000 0.692411
vt 0.166562 0.514204
vt 0.301824 0.698109
vt 0.428025 0.612587
vt 0.409019 0.590011
vt 0.386776 0.178942
vt 0.050326 0.130736
vt 0.323806 0.704274
vt 0.422550 0.244301
vt 0.408748 0.980443
vt 0.487979 0.675247
vt 0.746971 0.179670
vt 0.430113 0.665680
vt 0.127856 0.016395
vt 0.845331 0.979030
vt 0.703703 0.692617
vt 0.720307 0.383944
vt 0.012118 0.727714
vt 0.549683 0.980443
vt 0.159811 0.363525
vt 0.009562 0.508343
vt 0.376068 0.102851
vt 0.427585 0.163393
vt 0.298537 0.358537
vt 0.311370 0.690334
vt 0.971706 0.982847
vt 0.465050 0.689202
vt 0.093771 0.066663
vt 0.430482 0.116860
vt 0.543205 0.689205
vt 0.286994 0.000000
vt 0.767840 0.000000
vt 0.656359 0.682006
vt 0.427297 0.594084
vt 0.409922 0.652638
vt 0.012108 0.410407
vt 0.000000 0.500871
vt 0.694157 0.971194
vt 0.697493 0.079517
vt 0.094507 0.070478
vt 0.428632 0.689200
vt 0.765034 0.200304
vt 0.724394 0.091993
vt 0.010063 0.489061
vt 0.415126 1.000000
vt 0.534858 1.000000
vt 0.612185 0.339867
vt 0.737425 0.108691
vt 0.763703 0.349434
vt 0.608618 0.594652
vt 0.050325 0.272081
vt 0.773250 0.503650
vt 0.399202 0.256267
vt 0.016425 0.122940
vt 0.777387 0.011787
vt 0.408748 0.593477
vt 0.399202 0.193505
vt 0.071231 0.063130
vt 0.872541 0.687064
vt 0.646547 0.014235
vt 0.000000 0.293203
vt 0.413101 0.178541
vt 0.729158 0.982847
vt 0.830689 0.824887
vt 0.435886 0.169518
vt 0.426930 0.173921
vt 0.431115 0.349434
vt 0.715111 0.523906
vt 0.484189 0.326367
vt 0.518253 0.029958
vt 0.729853 0.372976
vt 0.814727 0.980036
vt 0.797447 0.000000
vt 0.512284 0.017041
vt 0.453385 0.968216
vt 0.111935 0.087651
vt 0.181181 0.182864
vt 0.579368 0.188449
vn 0.597469 0.699385 -0.392290
vn 0.597469 0.699385 -0.392290
vn 0.597469 0.699385 -0.392290
vn 0.597469 0.699385 -0.392290
vn 0.039843 -0.999082 0.015733
vn 0.023147 -0.997547 -0.066064
vn 0.037851 -0.993580 -0.106613
vn 0.072866 -0.997080 0.022834
vn 0.055773 -0.866638 0.495811
vn 0.055773 -0.866638 0.495811
vn 0.055773 -0.866638 0.495811
vn 0.055773 -0.866638 0.495811
vn 0.023147 -0.997547 -0.066064
vn -0.003832 -0.993606 -0.112841
vn 0.002221 -0.983414 -0.181361
vn 0.037851 -0.993580 -0.106613
vn -0.050427 -0.985507 0.161967
vn -0.026955 -0.969166 0.244930
vn -0.026955 -0.969166 0.244930
vn -0.050271 -0.985422 0.162529
vn -0.049399 -0.987454 -0.149978
vn -0.073894 -0.997266 0.000000
vn -0.073894 -0.997266 0.000000
vn -0.048924 -0.987263 -0.151385
vn -0.527300 0.645760 -0.552222
vn -0.527300 0.645760 -0.552222
vn -0.527300 0.645760 -0.552222
vn -0.527300 0.645760 -0.552222
vn -0.091925 0.995766 -0.000013
vn -0.091515 0.991181 -0.095845
vn -0.091515 0.991181 -0.095845
vn -0.091925 0.995766 -0.000015
vn 0.090080 0.994859 0.046270
vn 0.058285 0.973516 0.221065
vn 0.058449 0.973609 0.220612
vn 0.090161 0.994926 0.044645
vn 0.000801 0.956537 0.291609
vn -0.031089 0.955780 0.292436
vn -0.031089 0.955780 0.292436
vn 0.000768 0.956537 0.291610
vn -0.035241 0.957036 -0.287821
vn -0.001263 0.957152 -0.289585
vn -0.001208 0.957151 -0.289587
vn -0.035241 0.957036 -0.287821
vn -0.091489 0.991187 0.095808
vn -0.091925 0.995766 -0.000013
vn -0.091925 0.995766 -0.000015
vn -0.091489 0.991187 0.095808
vn 0.094805 0.993796 -0.058147
vn 0.090080 0.994859 0.046270
vn 0.090161 0.994926 0.044645
vn 0.094805 0.993796 -0.058147
vn -0.099616 0.352991 0.930308
vn -0.099616 0.352991 0.930308
vn -0.099616 0.352991 0.930308
vn -0.099616 0.352991 0.930308
vn -0.224191 0.534843 -0.814666
vn -0.224191 0.534843 -0.814666
vn -0.224191 0.534843 -0.814666
vn -0.224191 0.534843 -0.814666
vn 0.681404 0.717910 -0.142456
vn 0.681404 0.717910 -0.142456
vn 0.681404 0.717910 -0.142456
vn 0.681404 0.717910 -0.142456
vn 0.104508 0.354865 -0.929058
vn 0.104508 0.354865 -0.929058
vn 0.104508 0.354865 -0.929058
vn 0.032744 0.956140 -0.291075
vn 0.032744 0.956140 -0.291075
vn 0.032744 0.956140 -0.291075
vn 0.032744 0.956140 -0.291075
vn -0.001208 0.957151 -0.289587
vn -0.001263 0.957152 -0.289585
vn 0.032738 0.956158 -0.291014
vn 0.032738 0.956158 -0.291014
vn 0.527861 0.802154 0.279126
vn 0.527861 0.802154 0.279126
vn 0.527861 0.802154 0.279126
vn 0.527861 0.802154 0.279126
vn -0.210687 0.157366 0.964804
vn -0.210687 0.157366 0.964804
vn -0.210687 0.157366 0.964804
vn -0.210687 0.157366 0.964804
vn 0.104508 0.354866 0.929058
vn 0.104508 0.354866 0.929058
vn 0.104508 0.354866 0.929058
vn 0.104508 0.354866 0.929058
vn 0.000801 0.956537 0.291609
vn 0.000768 0.956537 0.291610
vn 0.032674 0.956321 0.290487
vn 0.032674 0.956321 0.290487
vn 0.058449 0.973609 0.220612
vn 0.058285 0.973516 0.221065
vn 0.032668 0.956339 0.290430
vn 0.032668 0.956339 0.290430
vn 0.000000 1.000000 -0.000000
vn 0.000000 1.000000 -0.000000
vn 0.000000 1.000000 -0.000000
vn 0.000000 1.000000 -0.000000
vn -0.267570 -0.202293 -0.942064
vn -0.267570 -0.202293 -0.942064
vn -0.267570 -0.202293 -0.942064
vn -0.103482 0.212731 0.971616
vn -0.103482 0.212731 0.971616
vn -0.103482 0.212731 0.971616
vn -0.527300 0.645760 0.552222
vn -0.527300 0.645760 0.552222
vn -0.527300 0.645760 0.552222
vn -0.073894 -0.997266 0.000000
vn -0.073894 -0.997266 0.000000
vn -0.073673 -0.994293 0.077155
vn -0.073673 -0.994293 0.077155
vn -0.003832 -0.993606 -0.112841
vn -0.049399 -0.987454 -0.149978
vn -0.048924 -0.987263 -0.151385
vn 0.002221 -0.983414 -0.181361
vn 0.476503 0.084375 -0.875115
vn 0.476503 0.084375 -0.875115
vn 0.476503 0.084375 -0.875115
vn 0.476503 0.084375 -0.875115
vn -0.043307 -0.017628 0.998906
vn -0.043307 -0.017628 0.998906
vn -0.043307 -0.017628 0.998906
vn -0.043307 -0.017628 0.998906
vn -0.000000 -1.000000 0.000000
vn -0.007490 -0.999556 0.028851
vn 0.039843 -0.999082 0.015733
vn -0.000000 -1.000000 0.000000
vn 0.425924 0.559114 0.711323
vn 0.425924 0.559114 0.711323
vn 0.425924 0.559114 0.711323
vn 0.091365 -0.988361 0.121636
vn 0.039843 -0.999082 0.015733
vn 0.072866 -0.997080 0.022834
vn 0.091365 -0.988361 0.121636
vn 0.180690 -0.954553 0.237022
vn 0.180690 -0.954553 0.237022
vn 0.180690 -0.954553 0.237022
vn 0.180690 -0.954553 0.237022
vn -0.112605 0.357948 -0.926927
vn -0.112605 0.357948 -0.926927
vn -0.112605 0.357948 -0.926927
vn -0.112605 0.357948 -0.926927
vn -0.050427 -0.985507 0.161967
vn -0.050271 -0.985422 0.162529
vn -0.073673 -0.994293 0.077155
vn -0.527300 0.645760 0.552222
vn -0.527300 0.645760 0.552222
vn -0.527300 0.645760 0.552222
vn -0.527300 0.645760 0.552222
vn 0.104508 0.354866 0.929058
vn 0.104508 0.354866 0.929058
vn 0.104508 0.354866 0.929058
vn 0.425924 0.559114 0.711323
vn 0.425924 0.559114 0.711323
vn 0.425924 0.559114 0.711323
vn 0.425924 0.559114 0.711323
vn 0.104508 0.354865 -0.929058
vn 0.104508 0.354865 -0.929058
vn 0.104508 0.354865 -0.929058
vn 0.104508 0.354865 -0.929058
vn -0.000000 -1.000000 0.000000
vn -0.000000 -1.000000 0.000000
vn -0.000000 -1.000000 0.000000
vn -0.001855 -0.999871 0.015979
vn -0.000000 -1.000000 0.000000
vn -0.000000 -1.000000 0.000000
vn -0.003832 -0.993606 -0.112841
vn -0.000000 -1.000000 0.000000
vn 0.023147 -0.997547 -0.066064
vn 0.000000 1.000000 -0.000000
vn -0.000000 1.000000 -0.000000
vn 0.000000 1.000000 -0.000000
vn 0.000000 1.000000 -0.000000
vn 0.000000 1.000000 -0.000000
vn 0.000000 1.000000 -0.000000
vn 0.000000 1.000000 -0.000000
vn 0.000000 1.000000 -0.000000
vn 0.000000 1.000000 -0.000000
vn 0.000000 1.000000 -0.000000
vn 0.000000 1.000000 -0.000000
s off
g puente_roca2
usemtl Rock_15SG
f 8/103/1 24/53/2 31/104/3 15/14/4
f 16/43/5 7/87/6 8/97/7 15/90/8
f 12/82/9 5/81/10 6/46/11 11/55/12
f 7/87/13 10/56/14 9/19/15 8/97/16
f 1/58/17 12/22/18 11/67/19 2/2/20
f 3/60/21 14/26/22 13/89/23 4/17/24
f 13/7/25 29/32/26 20/39/27 4/54/28
f 30/12/29 19/21/30 20/11/31 29/83/32
f 32/106/33 21/65/34 22/5/35 31/110/36
f 28/45/37 17/105/38 18/25/39 27/27/40
f 19/21/41 26/3/42 25/84/43 20/11/44
f 17/105/45 30/12/46 29/83/47 18/25/48
f 23/96/49 32/106/50 31/110/51 24/24/52
f 11/55/53 27/66/54 18/69/55 2/74/56
f 33/10/57 35/13/58 34/88/59 36/20/60
f 37/34/61 33/85/62 36/33/63 38/107/64
s 1
f 36/100/65 8/52/66 9/95/67
s off
f 23/96/68 24/24/69 34/30/70 35/75/71
f 25/84/72 26/3/73 37/1/74 38/79/75
f 41/31/76 40/44/77 42/61/78 39/36/79
f 44/63/80 43/4/81 41/47/82 39/111/83
s 2
f 39/111/84 6/46/85 22/77/86 44/63/87
s off
f 28/45/88 27/27/89 42/98/90 40/102/91
f 22/5/92 21/65/93 43/59/94 44/6/95
s 3
f 33/8/96 37/1/97 26/3/98 19/21/99
s off
f 47/38/100 46/73/101 45/80/102
f 46/109/103 47/23/104 48/91/105
s 4
f 47/38/106 18/35/107 29/32/108
s 5
f 13/89/109 14/26/110 46/42/111 48/93/112
s off
f 10/56/113 3/60/114 4/17/115 9/19/116
f 51/92/117 50/41/118 52/86/119 49/40/120
f 52/68/121 50/29/122 54/78/123 53/48/124
s 6
f 50/76/125 55/112/126 16/43/127 54/16/128
s 7
f 52/86/129 31/104/130 22/28/131
s off
f 54/16/132 16/43/133 15/90/134 53/94/135
f 6/49/136 5/71/137 51/92/138 49/40/139
f 4/37/140 20/62/141 25/18/142 9/95/143
s 5
f 46/42/111 1/58/144 2/2/145 45/9/146
f 46/42/111 14/26/110 1/58/144
s 4
f 47/38/106 29/32/108 13/7/147 48/57/148
f 2/72/149 18/35/107 47/38/106 45/80/150
s 2
f 39/111/84 11/55/151 6/46/85
f 27/66/152 11/55/151 39/111/84 42/15/153
s 7
f 52/86/129 22/28/131 6/49/154 49/40/155
f 53/70/156 15/14/157 31/104/130 52/86/129
s 1
f 36/100/65 9/95/67 25/18/158 38/51/159
f 34/108/160 24/99/161 8/52/66 36/100/65
s 6
f 5/50/162 55/112/126 50/76/125 51/64/163
f 14/26/164 56/113/165 12/22/166 1/58/167
f 5/50/162 12/22/166 56/113/165 55/112/126
f 10/56/168 56/113/165 14/26/164 3/60/169
f 16/43/127 56/113/165 10/56/168 7/87/170
f 55/112/126 56/113/165 16/43/127
s 3
f 28/45/171 57/114/172 30/12/173 17/105/174
f 33/8/96 19/21/99 30/12/173 57/114/172
f 33/8/96 57/114/172 23/96/175 35/75/176
f 41/101/177 57/114/172 28/45/171 40/102/178
f 32/106/179 41/101/177 43/59/180 21/65/181
f 23/96/175 57/114/172 41/101/177 32/106/179
